<?xml version="1.0" encoding="UTF-8"?>
<svg id="Layer_1" xmlns="http://www.w3.org/2000/svg" version="1.1" viewBox="0 0 160 160">
  <!-- Generator: Adobe Illustrator 29.8.3, SVG Export Plug-In . SVG Version: 2.1.1 Build 3)  -->
  <defs>
    <style>
      .st0 {
        fill: #fff;
        stroke: #fff;
        stroke-miterlimit: 10;
        stroke-width: 1.5px;
      }
    </style>
  </defs>
  <ellipse class="st0" cx="80" cy="73.46" rx="43.4" ry="40.73"/>
  <g>
    <path d="M73.65,71.33c2.23-1.32,4.84-2.07,7.63-2.07,3.75,0,7.17,1.35,9.8,3.61l11.92-32.3h-11.34l-9.9,18.95-10.31-20.48h-14.44l14.03,26.9,2.62,5.38Z"/>
    <path d="M80.56,76.63v-3.55s-10.4-1.49-10.36,5.83q.04,7.33.04,7.33c1.12-2.53,5.77-2.69,6.38-2.48,2.24.77,2.98.67,2.98.67l.95-.3v-2.9l-1.08-.92-.17-2.15,1.24-1.53Z"/>
    <path d="M91.09,92.29c0,12.09-4.27,21.9-9.53,21.9s-9.53-9.8-9.53-21.9,4.65-2.51,9.91-2.51,9.15-9.58,9.15,2.51Z"/>
    <path d="M82.56,76.63v-3.55s10.4-1.49,10.36,5.83q-.04,7.33-.04,7.33c-1.12-2.53-5.77-2.69-6.38-2.48-2.24.77-2.98.67-2.98.67l-.95-.3v-2.9l1.08-.92.17-2.15-1.24-1.53Z"/>
    <ellipse cx="81.56" cy="78.61" rx=".49" ry=".99"/>
  </g>
</svg>